<mxfile host="app.diagrams.net" modified="2024-05-18T10:50:56.749Z" agent="Mozilla/5.0 (Windows NT 10.0; Win64; x64) AppleWebKit/537.36 (KHTML, like Gecko) Chrome/123.0.0.0 Safari/537.36" etag="6EkPB0v81rhYCmJqJp0g" version="23.0.2" type="github">
  <diagram id="07fea595-8f29-1299-0266-81d95cde20df" name="Page-1">
    <mxGraphModel dx="2686" dy="777" grid="1" gridSize="10" guides="1" tooltips="1" connect="1" arrows="1" fold="1" page="1" pageScale="1" pageWidth="1169" pageHeight="827" background="none" math="0" shadow="0">
      <root>
        <mxCell id="0" />
        <mxCell id="1" parent="0" />
        <mxCell id="37AEC4nWHkkaQ4RAomHy-657" value="" style="shape=curlyBracket;whiteSpace=wrap;html=1;rounded=1;labelPosition=left;verticalLabelPosition=middle;align=right;verticalAlign=middle;fontSize=18;fillColor=#d5e8d4;strokeColor=#82b366;" vertex="1" parent="1">
          <mxGeometry x="150" y="120" width="20" height="220" as="geometry" />
        </mxCell>
        <mxCell id="37AEC4nWHkkaQ4RAomHy-658" value="&lt;span style=&quot;color: rgb(51, 51, 51); font-family: &amp;quot;Noto Sans SC&amp;quot;; font-size: 18px; font-style: normal; font-variant-ligatures: normal; font-variant-caps: normal; font-weight: 400; letter-spacing: normal; orphans: 2; text-align: left; text-indent: 0px; text-transform: none; widows: 2; word-spacing: 0px; -webkit-text-stroke-width: 0px; background-color: rgb(255, 255, 255); text-decoration-thickness: initial; text-decoration-style: initial; text-decoration-color: initial; float: none; display: inline !important;&quot;&gt;金融寡头统治&lt;/span&gt;" style="text;whiteSpace=wrap;html=1;fontSize=18;fillColor=#d5e8d4;strokeColor=#82b366;" vertex="1" parent="1">
          <mxGeometry x="20" y="220" width="130" height="40" as="geometry" />
        </mxCell>
        <mxCell id="37AEC4nWHkkaQ4RAomHy-659" value="&lt;font style=&quot;font-size: 18px;&quot;&gt;&lt;span style=&quot;color: rgb(51, 51, 51); font-family: &amp;quot;Noto Sans SC&amp;quot;; font-style: normal; font-variant-ligatures: normal; font-variant-caps: normal; font-weight: 400; letter-spacing: normal; orphans: 2; text-align: left; text-indent: 0px; text-transform: none; widows: 2; word-spacing: 0px; -webkit-text-stroke-width: 0px; background-color: rgb(255, 255, 255); text-decoration-thickness: initial; text-decoration-style: initial; text-decoration-color: initial; float: none; display: inline !important; font-size: 18px;&quot;&gt;经济上&lt;/span&gt;&lt;font color=&quot;#ff0000&quot; style=&quot;font-size: 18px;&quot;&gt;参与制&lt;/font&gt;: 参与股票，控制公司&lt;/font&gt;" style="text;whiteSpace=wrap;html=1;fontSize=18;fillColor=#d5e8d4;strokeColor=#82b366;" vertex="1" parent="1">
          <mxGeometry x="180" y="90" width="240" height="60" as="geometry" />
        </mxCell>
        <mxCell id="37AEC4nWHkkaQ4RAomHy-660" value="&lt;font style=&quot;font-size: 18px;&quot;&gt;&lt;font color=&quot;#ff0000&quot; style=&quot;font-size: 18px;&quot;&gt;&lt;font face=&quot;Noto Sans SC&quot; style=&quot;font-size: 18px;&quot;&gt;&lt;span style=&quot;background-color: rgb(255, 255, 255); font-size: 18px;&quot;&gt;政治上&lt;/span&gt;&lt;/font&gt;个人联合&lt;/font&gt;:&lt;/font&gt;金融寡头&lt;span style=&quot;color: rgb(51, 51, 51); font-family: Arial, sans-serif; font-size: 18px; background-color: rgb(255, 255, 255);&quot;&gt;与资产阶级政权代表的联合&lt;/span&gt;" style="text;whiteSpace=wrap;html=1;fontSize=18;fillColor=#d5e8d4;strokeColor=#82b366;" vertex="1" parent="1">
          <mxGeometry x="180" y="320" width="280" height="70" as="geometry" />
        </mxCell>
        <mxCell id="37AEC4nWHkkaQ4RAomHy-662" value="&lt;p style=&quot;margin: 0px; padding: 0px; overflow-wrap: break-word; color: rgb(34, 34, 34); font-family: &amp;quot;Helvetica Neue&amp;quot;, Helvetica, Arial, &amp;quot;PingFang SC&amp;quot;, &amp;quot;Hiragino Sans GB&amp;quot;, &amp;quot;Microsoft YaHei&amp;quot;, &amp;quot;WenQuanYi Micro Hei&amp;quot;, sans-serif; font-size: 18px; font-style: normal; font-variant-ligatures: normal; font-variant-caps: normal; font-weight: 700; letter-spacing: normal; orphans: 2; text-align: start; text-indent: 0px; text-transform: none; widows: 2; word-spacing: 0px; -webkit-text-stroke-width: 0px; background-color: rgb(255, 255, 255); text-decoration-thickness: initial; text-decoration-style: initial; text-decoration-color: initial;&quot;&gt;&lt;span style=&quot;margin: 0px; padding: 0px; overflow-wrap: break-word; font-size: 18px;&quot;&gt;首先,科学技术革命和生产力的发展,是资本主义变化的根本推动力。&lt;/span&gt;&lt;/p&gt;&lt;p style=&quot;margin: 0px; padding: 0px; overflow-wrap: break-word; color: rgb(34, 34, 34); font-family: &amp;quot;Helvetica Neue&amp;quot;, Helvetica, Arial, &amp;quot;PingFang SC&amp;quot;, &amp;quot;Hiragino Sans GB&amp;quot;, &amp;quot;Microsoft YaHei&amp;quot;, &amp;quot;WenQuanYi Micro Hei&amp;quot;, sans-serif; font-size: 18px; font-style: normal; font-variant-ligatures: normal; font-variant-caps: normal; font-weight: 700; letter-spacing: normal; orphans: 2; text-align: start; text-indent: 0px; text-transform: none; widows: 2; word-spacing: 0px; -webkit-text-stroke-width: 0px; background-color: rgb(255, 255, 255); text-decoration-thickness: initial; text-decoration-style: initial; text-decoration-color: initial;&quot;&gt;&lt;span style=&quot;margin: 0px; padding: 0px; overflow-wrap: break-word; font-size: 18px;&quot;&gt;其次,工人阶级争取自身权力和利益斗争的作用,是推动资本主义变化的重要力量。&lt;/span&gt;&lt;/p&gt;&lt;p style=&quot;margin: 0px; padding: 0px; overflow-wrap: break-word; color: rgb(34, 34, 34); font-family: &amp;quot;Helvetica Neue&amp;quot;, Helvetica, Arial, &amp;quot;PingFang SC&amp;quot;, &amp;quot;Hiragino Sans GB&amp;quot;, &amp;quot;Microsoft YaHei&amp;quot;, &amp;quot;WenQuanYi Micro Hei&amp;quot;, sans-serif; font-size: 18px; font-style: normal; font-variant-ligatures: normal; font-variant-caps: normal; font-weight: 700; letter-spacing: normal; orphans: 2; text-align: start; text-indent: 0px; text-transform: none; widows: 2; word-spacing: 0px; -webkit-text-stroke-width: 0px; background-color: rgb(255, 255, 255); text-decoration-thickness: initial; text-decoration-style: initial; text-decoration-color: initial;&quot;&gt;&lt;span style=&quot;margin: 0px; padding: 0px; overflow-wrap: break-word; font-size: 18px;&quot;&gt;再次,社会主义制度初步显示的优越性对资本主义产生了一定影响。&lt;/span&gt;&lt;/p&gt;" style="text;whiteSpace=wrap;html=1;fontSize=18;" vertex="1" parent="1">
          <mxGeometry x="550" y="90" width="560" height="150" as="geometry" />
        </mxCell>
        <mxCell id="37AEC4nWHkkaQ4RAomHy-680" value="&lt;span style=&quot;color: rgb(51, 51, 51); font-family: &amp;quot;Noto Sans SC&amp;quot;; font-size: 18px; font-style: normal; font-variant-ligatures: normal; font-variant-caps: normal; font-weight: 400; letter-spacing: normal; orphans: 2; text-align: left; text-indent: 0px; text-transform: none; widows: 2; word-spacing: 0px; -webkit-text-stroke-width: 0px; background-color: rgb(255, 255, 255); text-decoration-thickness: initial; text-decoration-style: initial; text-decoration-color: initial; float: none; display: inline !important;&quot;&gt;社会主义革命建设和改革事业的领导核心是&lt;/span&gt;马克思主义政党" style="text;whiteSpace=wrap;html=1;fontSize=18;" vertex="1" parent="1">
          <mxGeometry x="800" y="480" width="470" height="40" as="geometry" />
        </mxCell>
        <mxCell id="37AEC4nWHkkaQ4RAomHy-681" value="&lt;span style=&quot;color: rgb(51, 51, 51); font-family: &amp;quot;Noto Sans SC&amp;quot;; font-size: 18px; font-style: normal; font-variant-ligatures: normal; font-variant-caps: normal; font-weight: 400; letter-spacing: normal; orphans: 2; text-align: left; text-indent: 0px; text-transform: none; widows: 2; word-spacing: 0px; -webkit-text-stroke-width: 0px; background-color: rgb(255, 255, 255); text-decoration-thickness: initial; text-decoration-style: initial; text-decoration-color: initial; float: none; display: inline !important;&quot;&gt;资本主义&lt;/span&gt;" style="text;whiteSpace=wrap;html=1;fontSize=18;" vertex="1" parent="1">
          <mxGeometry x="-141" y="720" width="160" height="40" as="geometry" />
        </mxCell>
        <mxCell id="37AEC4nWHkkaQ4RAomHy-682" value="" style="shape=curlyBracket;whiteSpace=wrap;html=1;rounded=1;labelPosition=left;verticalLabelPosition=middle;align=right;verticalAlign=middle;fontSize=18;" vertex="1" parent="1">
          <mxGeometry x="-70" y="680" width="20" height="120" as="geometry" />
        </mxCell>
        <mxCell id="37AEC4nWHkkaQ4RAomHy-683" value="&lt;span style=&quot;color: rgb(51, 51, 51); font-family: &amp;quot;Noto Sans SC&amp;quot;; font-size: 18px; font-style: normal; font-variant-ligatures: normal; font-variant-caps: normal; font-weight: 400; letter-spacing: normal; orphans: 2; text-align: left; text-indent: 0px; text-transform: none; widows: 2; word-spacing: 0px; -webkit-text-stroke-width: 0px; background-color: rgb(255, 255, 255); text-decoration-thickness: initial; text-decoration-style: initial; text-decoration-color: initial; float: none; display: inline !important;&quot;&gt;生产过程&lt;/span&gt;" style="text;whiteSpace=wrap;html=1;fontSize=18;" vertex="1" parent="1">
          <mxGeometry x="-40" y="660" width="100" height="40" as="geometry" />
        </mxCell>
        <mxCell id="37AEC4nWHkkaQ4RAomHy-684" value="&lt;br class=&quot;Apple-interchange-newline&quot; style=&quot;font-size: 18px;&quot;&gt;&lt;span style=&quot;color: rgb(51, 51, 51); font-family: &amp;quot;Noto Sans SC&amp;quot;; font-size: 18px; font-style: normal; font-variant-ligatures: normal; font-variant-caps: normal; font-weight: 400; letter-spacing: normal; orphans: 2; text-align: left; text-indent: 0px; text-transform: none; widows: 2; word-spacing: 0px; -webkit-text-stroke-width: 0px; background-color: rgba(0, 0, 0, 0.05); text-decoration-thickness: initial; text-decoration-style: initial; text-decoration-color: initial; float: none; display: inline !important;&quot;&gt;劳动过程和价值增殖过程的统一&lt;/span&gt;" style="text;whiteSpace=wrap;html=1;fontSize=18;" vertex="1" parent="1">
          <mxGeometry x="50" y="640" width="260" height="60" as="geometry" />
        </mxCell>
        <mxCell id="37AEC4nWHkkaQ4RAomHy-686" value="" style="shape=curlyBracket;whiteSpace=wrap;html=1;rounded=1;labelPosition=left;verticalLabelPosition=middle;align=right;verticalAlign=middle;fontSize=18;" vertex="1" parent="1">
          <mxGeometry x="-1" y="920" width="20" height="350" as="geometry" />
        </mxCell>
      </root>
    </mxGraphModel>
  </diagram>
</mxfile>
